<svg xmlns="http://www.w3.org/2000/svg" width="100" height="18" fill="none" style=""><rect id="backgroundrect" width="100%" height="100%" x="0" y="0" fill="none" stroke="none"/>





<defs>
<linearGradient id="paint0_linear" x1="0.5000063180923462" y1="2.3118904124430628e-8" x2="0.5000063180923462" y2="1.0000020265579224">
<stop stop-color="#FFB700"/>
<stop offset="1" stop-color="#FFE600"/>
</linearGradient>
<linearGradient id="paint1_linear" x1="0.5000002980232239" y1="1.281563521970952e-9" x2="0.5000002980232239" y2="1">
<stop stop-color="#FFB700"/>
<stop offset="1" stop-color="#FFE600"/>
</linearGradient>
<linearGradient id="paint2_linear" x1="0.49999961256980896" y1="-2.349513472665876e-9" x2="0.49999961256980896" y2="1">
<stop stop-color="#FFB700"/>
<stop offset="1" stop-color="#FFE600"/>
</linearGradient>
<linearGradient id="paint3_linear" x1="0.5000024437904358" y1="-2.4991123753759226e-11" x2="0.5000024437904358" y2="1">
<stop stop-color="#FFB700"/>
<stop offset="1" stop-color="#FFE600"/>
</linearGradient>
<linearGradient id="paint4_linear" x1="0.5000000596046448" y1="-8.52734771683572e-10" x2="0.5000000596046448" y2="1">
<stop stop-color="#FFB700"/>
<stop offset="1" stop-color="#FFE600"/>
</linearGradient>
</defs>
<g class="currentLayer" style=""><title>Layer 1</title><path d="M84.69622449785471,17.39695920997858 C84.62042449785471,17.41655920997858 84.54082449785471,17.41655920997858 84.46502449785471,17.39695920997858 C84.40932449785471,17.35105920997858 84.36702449785471,17.29095920997858 84.34262449785471,17.22305920997858 C84.31822449785471,17.15505920997858 84.31252449785471,17.081759209978582 84.32622449785471,17.01085920997858 L85.32842449785471,11.18825920997858 L80.88792449785471,6.832869209978581 C80.83772449785471,6.7805592099785805 80.80262449785471,6.715589209978581 80.78632449785471,6.64488920997858 C80.7700244978547,6.574179209978581 80.77322449785471,6.500379209978581 80.79542449785471,6.431309209978581 C80.81932449785471,6.362929209978582 80.8628244978547,6.30306920997858 80.92032449785471,6.25914920997858 C80.97792449785472,6.21522920997858 81.04702449785471,6.189179209978581 81.11922449785472,6.184199209978582 L87.40982449785471,5.381079209978581 L90.07722449785471,0.26890820997858045 C90.11052449785471,0.20797420997858068 90.15962449785471,0.15716520997858063 90.21932449785471,0.12182920997858071 C90.2790244978547,0.08649320997858068 90.34712449785471,0.06793720997858071 90.4164244978547,0.06812620997858077 V0.06812620997858077 C90.48582449785471,0.06793720997858071 90.55392449785471,0.08649320997858068 90.61362449785472,0.12182920997858071 C90.67332449785471,0.15716520997858063 90.72232449785471,0.20797420997858068 90.75562449785471,0.26890820997858045 L93.42302449785471,5.381079209978581 L99.72912449785471,6.184199209978582 C99.79852449785471,6.192019209978581 99.86432449785471,6.21937920997858 99.9189244978547,6.26310920997858 C99.97352449785471,6.30683920997858 100.01462449785471,6.3651592099785805 100.03742449785472,6.431309209978581 C100.0632244978547,6.499909209978581 100.06822449785471,6.574679209978581 100.0520244978547,6.64615920997858 C100.03552449785471,6.71763920997858 99.99832449785471,6.782619209978581 99.94492449785471,6.832869209978581 L95.50442449785471,11.18825920997858 L96.5221244978547,17.01085920997858 C96.53592449785471,17.08205920997858 96.52952449785471,17.15575920997858 96.50352449785471,17.223459209978586 C96.47742449785471,17.29115920997858 96.43292449785471,17.350059209978582 96.37502449785471,17.39365920997858 C96.3171244978547,17.43715920997858 96.24812449785469,17.46345920997858 96.17592449785471,17.46945920997858 C96.1038244978547,17.47555920997858 96.03142449785472,17.46115920997858 95.96702449785471,17.427859209978582 L90.4164244978547,14.64785920997858 L84.8658244978547,17.427859209978582 C84.80752449785471,17.433959209978582 84.74872449785471,17.423259209978582 84.69622449785471,17.39695920997858 V17.39695920997858 zM81.99802449785471,6.77108920997858 L86.02222449785471,10.709459209978581 C86.06332449785471,10.755159209978581 86.09412449785471,10.809059209978578 86.1128244978547,10.86765920997858 C86.13142449785471,10.92625920997858 86.1373244978547,10.98815920997858 86.13012449785471,11.049259209978581 L85.20502449785471,16.31585920997858 L90.2468244978547,13.79835920997858 C90.29842449785471,13.76855920997858 90.3569244978547,13.752859209978581 90.4164244978547,13.752859209978581 C90.47602449785471,13.752859209978581 90.5345244978547,13.76855920997858 90.58602449785471,13.79835920997858 L95.6278244978547,16.31585920997858 L94.7027244978547,11.049259209978581 C94.69402449785471,10.986859209978581 94.70072449785471,10.92325920997858 94.72222449785471,10.86395920997858 C94.74372449785471,10.804759209978581 94.7794244978547,10.75175920997858 94.8261244978547,10.709459209978581 L98.83482449785471,6.77108920997858 L93.1300244978547,6.0451992099785805 C93.06722449785471,6.03610920997858 93.0076244978547,6.01160920997858 92.95652449785472,5.97388920997858 C92.90542449785471,5.936169209978581 92.86442449785471,5.8863892099785815 92.83712449785472,5.828979209978581 L90.4164244978547,1.1955892099785803 L87.99582449785471,5.828979209978581 C87.97102449785471,5.88815920997858 87.93072449785471,5.93951920997858 87.8791244978547,5.97758920997858 C87.82752449785471,6.015659209978581 87.7666244978547,6.039029209978581 87.7028244978547,6.0451992099785805 L81.99802449785471,6.77108920997858 z" fill="url(#paint0_linear)" id="svg_1" class=""/><path d="M64.41444215387106,17.396959209978576 C64.33864215387106,17.41655920997858 64.25904215387106,17.41655920997858 64.18324215387106,17.396959209978576 C64.12754215387106,17.35105920997858 64.08524215387106,17.29095920997858 64.06084215387106,17.22305920997858 C64.03644215387106,17.15505920997858 64.03074215387106,17.081759209978586 64.04444215387106,17.010859209978577 L65.04664215387106,11.188259209978582 L60.60614215387106,6.8328692099785835 C60.55594215387106,6.7805592099785805 60.52084215387106,6.715589209978582 60.50454215387106,6.6448892099785795 C60.488242153871056,6.574179209978581 60.49144215387106,6.500379209978583 60.51364215387107,6.431309209978579 C60.53754215387106,6.3629292099785815 60.58104215387105,6.303069209978582 60.63854215387106,6.259149209978582 C60.696142153871065,6.215229209978581 60.76524215387106,6.18917920997858 60.837442153871066,6.18419920997858 L67.12804215387106,5.381079209978581 L69.79544215387106,0.2689082099785802 C69.82874215387106,0.20797420997858052 69.87784215387106,0.15716520997857925 69.93754215387106,0.12182920997858236 C69.99724215387106,0.0864932099785813 70.06534215387106,0.06793720997858102 70.13464215387106,0.06812620997858007 V0.06812620997858007 C70.20404215387106,0.06793720997858102 70.27214215387106,0.0864932099785813 70.33184215387107,0.12182920997858236 C70.39154215387106,0.15716520997857925 70.44054215387106,0.20797420997858052 70.47384215387106,0.2689082099785802 L73.14124215387106,5.381079209978581 L79.44734215387106,6.18419920997858 C79.51674215387106,6.192019209978582 79.58254215387106,6.21937920997858 79.63714215387105,6.26310920997858 C79.69174215387106,6.30683920997858 79.73284215387106,6.365159209978579 79.75564215387107,6.431309209978579 C79.78144215387105,6.499909209978583 79.78644215387106,6.57467920997858 79.77024215387105,6.646159209978581 C79.75374215387106,6.7176392099785796 79.71654215387106,6.782619209978581 79.66314215387106,6.8328692099785835 L75.22264215387106,11.188259209978582 L76.24034215387105,17.010859209978577 C76.25414215387106,17.08205920997858 76.24774215387106,17.155759209978584 76.22174215387106,17.223459209978586 C76.19564215387106,17.29115920997858 76.15114215387106,17.350059209978582 76.09324215387106,17.39365920997858 C76.03534215387106,17.43715920997858 75.96634215387104,17.46345920997858 75.89414215387106,17.46945920997858 C75.82204215387105,17.475559209978584 75.74964215387106,17.461159209978575 75.68524215387106,17.42785920997858 L70.13464215387106,14.647859209978577 L64.58404215387105,17.42785920997858 C64.52574215387106,17.433959209978582 64.46694215387106,17.423259209978582 64.41444215387106,17.396959209978576 V17.396959209978576 zM61.716242153871065,6.77108920997858 L65.74044215387106,10.709459209978583 C65.78154215387106,10.75515920997858 65.81234215387106,10.809059209978578 65.83104215387105,10.86765920997858 C65.84964215387106,10.926259209978582 65.85554215387106,10.98815920997858 65.84834215387106,11.04925920997858 L64.92324215387106,16.315859209978584 L69.96504215387105,13.798359209978578 C70.01664215387106,13.768559209978577 70.07514215387106,13.752859209978581 70.13464215387106,13.752859209978581 C70.19424215387106,13.752859209978581 70.25274215387105,13.768559209978577 70.30424215387106,13.798359209978578 L75.34604215387105,16.315859209978584 L74.42094215387105,11.04925920997858 C74.41224215387106,10.986859209978583 74.41894215387106,10.923259209978582 74.44044215387106,10.863959209978582 C74.46194215387106,10.804759209978581 74.49764215387106,10.75175920997858 74.54434215387106,10.709459209978583 L78.55304215387106,6.77108920997858 L72.84824215387106,6.0451992099785805 C72.78544215387106,6.03610920997858 72.72584215387106,6.01160920997858 72.67474215387107,5.97388920997858 C72.62364215387106,5.93616920997858 72.58264215387106,5.8863892099785815 72.55534215387107,5.8289792099785815 L70.13464215387106,1.1955892099785785 L67.71404215387106,5.8289792099785815 C67.68924215387106,5.888159209978582 67.64894215387106,5.939519209978581 67.59734215387105,5.977589209978582 C67.54574215387106,6.015659209978579 67.48484215387106,6.03902920997858 67.42104215387106,6.0451992099785805 L61.716242153871065,6.77108920997858 z" fill="url(#paint0_linear)" class="" id="svg_2"/><path d="M59.4875 6.85751L55.0471 11.2129L56.1263 17.0355C56.141 17.1057 56.1341 17.1786 56.1065 17.2448C56.079 17.3109 56.0322 17.3672 55.9722 17.4062C55.914 17.4489 55.8438 17.4719 55.7717 17.4719C55.6996 17.4719 55.6294 17.4489 55.5713 17.4062L49.959 14.6725L44.4084 17.4371C44.353 17.453 44.2943 17.453 44.2388 17.4371C44.1562 17.4325 44.0764 17.4058 44.0076 17.3599C43.9518 17.3175 43.9092 17.2602 43.8847 17.1946C43.8601 17.129 43.8546 17.0578 43.8688 16.9892L44.871 11.1666L40.446 6.81118C40.3931 6.76049 40.3551 6.69627 40.336 6.62548C40.317 6.5547 40.3177 6.48004 40.338 6.40962C40.3612 6.33938 40.4041 6.2773 40.4615 6.23075C40.5189 6.18421 40.5884 6.15516 40.6618 6.14706L46.9525 5.34394L49.6198 0.247216C49.6495 0.182259 49.6974 0.127292 49.7576 0.0889304C49.8177 0.0505689 49.8877 0.0304493 49.959 0.0309919C50.0308 0.0284041 50.1016 0.0476887 50.1622 0.0862969C50.2227 0.124905 50.2702 0.181017 50.2982 0.247216L53.0427 5.39027L59.3488 6.19339C59.4194 6.20422 59.4856 6.23451 59.5401 6.28087C59.5946 6.32724 59.6351 6.38786 59.6571 6.45596C59.6725 6.53221 59.6646 6.61135 59.6343 6.68301C59.6041 6.75466 59.5529 6.81549 59.4875 6.85751Z" fill="url(#paint2_linear)" id="svg_3"/><path d="M39.3056 6.85764L34.8651 11.213L35.8827 17.0357C35.8934 17.1057 35.8847 17.1773 35.8575 17.2426C35.8303 17.308 35.7857 17.3646 35.7285 17.4063C35.6695 17.4468 35.5996 17.4685 35.5281 17.4685C35.4565 17.4685 35.3867 17.4468 35.3276 17.4063L29.7771 14.6417L24.2265 17.4063C24.1711 17.4222 24.1123 17.4222 24.0569 17.4063C23.9743 17.4018 23.8944 17.3751 23.8256 17.3291C23.7699 17.2868 23.7273 17.2295 23.7027 17.1639C23.6781 17.0983 23.6726 17.027 23.6868 16.9584L24.689 11.1358L20.2486 6.78042C20.1997 6.72725 20.1656 6.66228 20.1493 6.59189C20.1331 6.52149 20.1354 6.44808 20.1561 6.37886C20.1792 6.30862 20.2221 6.24654 20.2795 6.19999C20.3369 6.15345 20.4064 6.1244 20.4798 6.1163L26.7705 5.31318L29.4379 0.216454C29.4676 0.151498 29.5154 0.0965303 29.5756 0.0581687C29.6358 0.0198072 29.7057 -0.000312466 29.7771 0.000230159C29.8488 -0.00235764 29.9196 0.016927 29.9802 0.0555351C30.0408 0.0941433 30.0882 0.150256 30.1163 0.216454L32.7836 5.31318L39.0897 6.1163C39.1604 6.12713 39.2266 6.15742 39.2811 6.20378C39.3355 6.25015 39.376 6.31076 39.3981 6.37886C39.44 6.45714 39.4537 6.54751 39.4368 6.63473C39.42 6.72195 39.3736 6.80068 39.3056 6.85764V6.85764Z" fill="url(#paint3_linear)" id="svg_4"/><path d="M19.1669 6.85754L14.7264 11.2129L15.744 17.0355C15.7547 17.1056 15.746 17.1772 15.7188 17.2425C15.6916 17.3079 15.647 17.3645 15.5898 17.4062C15.5222 17.4545 15.4416 17.4814 15.3586 17.4834C15.3029 17.4972 15.2447 17.4972 15.189 17.4834L9.63839 14.7189L4.08781 17.4834C4.02879 17.524 3.95892 17.5456 3.88737 17.5456C3.81583 17.5456 3.74596 17.524 3.68694 17.4834C3.63217 17.4397 3.58932 17.3827 3.56237 17.3179C3.53542 17.2531 3.52523 17.1826 3.53275 17.1128L4.55036 11.2901L0.109898 6.85754C0.0610743 6.80437 0.0268778 6.7394 0.0106607 6.66901C-0.00555632 6.59862 -0.00323817 6.52521 0.0173878 6.45598C0.0405769 6.38575 0.0834199 6.32366 0.140821 6.27711C0.198221 6.23057 0.267763 6.20152 0.341172 6.19342L6.63182 5.3903L9.26835 0.293579C9.29713 0.227443 9.34456 0.171157 9.40481 0.131629C9.46507 0.0921003 9.53553 0.0710449 9.60755 0.0710449C9.67958 0.0710449 9.75004 0.0921003 9.81029 0.131629C9.87054 0.171157 9.91797 0.227443 9.94675 0.293579L12.6141 5.3903L18.9202 6.19342C18.9908 6.20425 19.0571 6.23454 19.1115 6.2809C19.166 6.32727 19.2065 6.38789 19.2285 6.45598C19.2565 6.52205 19.2656 6.59461 19.2547 6.66555C19.2438 6.73648 19.2134 6.80296 19.1669 6.85754V6.85754Z" fill="url(#paint4_linear)" id="svg_5"/></g></svg>